<?xml version="1.0" encoding="utf-8"?>
<!-- Generator: Adobe Illustrator 23.0.2, SVG Export Plug-In . SVG Version: 6.00 Build 0)  -->
<svg version="1.1" xmlns="http://www.w3.org/2000/svg" xmlns:xlink="http://www.w3.org/1999/xlink" x="0px" y="0px"
	 width="1447.912px" height="1362.462px" viewBox="0 0 1447.912 1362.462" style="enable-background:new 0 0 1447.912 1362.462;"
	 xml:space="preserve">
<g id="Text">
</g>
<g id="Logo">
	<g id="Bottom">
		<polygon style="fill:#27B5CA;" points="1333.859,484.987 1258.146,533.998 1289.872,623.7 761.939,965.968 224.258,702.484 
			332.868,633.011 241.94,588.453 48.118,712.626 767.657,1065.231 1394.337,659.565 		"/>
	</g>
	<g id="Middle">
		<polygon style="fill:#4391CF;" points="1334.854,754.65 1259.141,803.661 1290.241,893.013 762.307,1235.282 224.626,971.798 
			331.208,902.841 240.281,858.283 48.487,981.94 768.025,1334.545 1394.706,928.878 		"/>
	</g>
	<path id="Top" style="fill:#67C8C5;" d="M1419.487,269.883l-29.428-83.858l-52.882,34.738l-65.244-181.091H675.311L48.708,441.912
		l719.538,352.605l626.68-405.666l-31.198-85.115L1419.487,269.883z M762.528,695.254L224.848,431.77l474.435-304.559l510.555-3.104
		l80.624,228.879L762.528,695.254z"/>
</g>
</svg>
